<svg height="512.00049pt" viewBox="0 0 512.00049 512.00049" width="512.00049pt" xmlns="http://www.w3.org/2000/svg"><path d="m59.734375 452.265625h17.066406v59.734375h-17.066406zm0 0"/><path d="m179.199219 452.265625h17.066406v59.734375h-17.066406zm0 0"/><path d="m196.265625 264.53125h25.601563v17.070312c0 4.710938 3.820312 8.53125 8.535156 8.53125 1.84375 0 3.640625-.597656 5.117187-1.707031l31.855469-23.894531h159.292969c4.710937 0 8.53125-3.820312 8.53125-8.53125v-136.535156c0-4.710938-3.820313-8.53125-8.53125-8.53125h-230.402344c-4.710937 0-8.53125 3.820312-8.53125 8.53125v136.535156c0 4.714844 3.820313 8.53125 8.53125 8.53125zm8.535156-136.53125h213.332031v119.46875h-153.601562c-1.84375 0-3.640625.597656-5.117188 1.703125l-20.480468 15.363281v-8.535156c0-4.710938-3.820313-8.53125-8.535156-8.53125h-25.597657zm0 0"/><path d="m238.933594 145.066406h17.066406v17.066406h-17.066406zm0 0"/><path d="m221.867188 179.199219h179.199218v17.066406h-179.199218zm0 0"/><path d="m221.867188 213.332031h145.066406v17.066407h-145.066406zm0 0"/><path d="m273.066406 145.066406h128v17.066406h-128zm0 0"/><path d="m8.535156 42.667969v34.132812c0 4.710938 3.820313 8.53125 8.53125 8.53125h17.066406v325.394531c-5.53125 7.359376-8.523437 16.316407-8.53125 25.523438v58.683594h17.066407v-58.683594c0-11.746094 7.992187-21.980469 19.386719-24.832031l42.417968-10.605469c3.796875-.953125 6.460938-4.363281 6.460938-8.277344v-17.066406c.019531-3.25-1.8125-6.230469-4.71875-7.679688-7.578125-3.75-12.367188-11.480468-12.347656-19.9375v-49.183593c0-18.851563 15.28125-34.132813 34.132812-34.132813s34.132812 15.28125 34.132812 34.132813v49.183593c.035157 8.472657-4.753906 16.222657-12.347656 19.976563-2.894531 1.449219-4.71875 4.40625-4.71875 7.640625v17.066406c0 3.914063 2.664063 7.324219 6.460938 8.277344l42.417968 10.605469c11.394532 2.851562 19.386719 13.089843 19.386719 24.832031v58.683594h17.066407v-17.066406h238.933593c4.714844 0 8.535157-3.820313 8.535157-8.535157v-384h17.066406c4.710937 0 8.535156-3.820312 8.535156-8.53125v-34.132812c0-4.714844-3.824219-8.535157-8.535156-8.535157h-477.867188c-4.710937 0-8.53125 3.820313-8.53125 8.535157zm452.265625 418.132812h-230.402343v-24.550781c.023437-19.585938-13.308594-36.664062-32.3125-41.394531l-35.953126-8.988281v-5.546876c10.710938-7.3125 17.101563-19.457031 17.066407-32.425781v-49.226562c0-28.277344-22.921875-51.199219-51.199219-51.199219s-51.199219 22.921875-51.199219 51.199219v49.183593c-.050781 12.984376 6.34375 25.148438 17.066407 32.46875v5.546876l-35.941407 8.988281c-2.300781.582031-4.550781 1.347656-6.726562 2.292969v-311.816407h409.601562zm-435.199219-409.601562h460.796876v17.066406h-460.796876zm0 0"/><path d="m256 409.601562h59.734375v17.066407h-59.734375zm0 0"/><path d="m332.800781 409.601562h17.066407v17.066407h-17.066407zm0 0"/><path d="m256 375.46875h76.800781v17.066406h-76.800781zm0 0"/><path d="m349.867188 375.46875h17.066406v17.066406h-17.066406zm0 0"/><path d="m256 341.332031h145.066406v17.066407h-145.066406zm0 0"/><path d="m418.132812 341.332031h17.066407v17.066407h-17.066407zm0 0"/><path d="m256 307.199219h102.398438v17.066406h-102.398438zm0 0"/><path d="m375.46875 307.199219h17.066406v17.066406h-17.066406zm0 0"/><path d="m85.332031 162.132812h68.269531c4.710938 0 8.53125-3.820312 8.53125-8.53125v-34.136718c0-4.710938-3.820312-8.53125-8.53125-8.53125h-68.269531c-4.710937 0-8.53125 3.820312-8.53125 8.53125v34.136718c0 4.710938 3.820313 8.53125 8.53125 8.53125zm8.535157-34.132812h51.199218v17.066406h-51.199218zm0 0"/><path d="m76.800781 179.199219h85.332031v17.066406h-85.332031zm0 0"/><path d="m76.800781 213.332031h85.332031v17.066407h-85.332031zm0 0"/><path d="m494.933594 477.867188c0 9.425781-7.640625 17.066406-17.066406 17.066406h-59.734376v17.066406h59.734376c18.851562 0 34.132812-15.28125 34.132812-34.132812v-128h-17.066406zm0 0"/><path d="m494.933594 315.734375h17.066406v17.066406h-17.066406zm0 0"/><path d="m0 145.066406h17.066406v187.734375h-17.066406zm0 0"/><path d="m128 0h17.066406v17.066406h-17.066406zm0 0"/><path d="m162.132812 0h221.867188v17.066406h-221.867188zm0 0"/></svg>