<svg width="60" height="60" viewBox="0 0 60 60" fill="none" xmlns="http://www.w3.org/2000/svg">
<g clip-path="url(#clip0)">
<rect width="60" height="60" fill="#FEFEFE"/>
<path d="M25.3104 48.6919C27.5032 48.6919 29.2815 46.9141 29.2815 44.7208C29.2815 42.5276 27.5037 40.7498 25.3104 40.7498C23.1172 40.7498 21.3394 42.5281 21.3394 44.7208C21.3422 46.9131 23.1181 48.6891 25.3104 48.6919ZM25.3104 42.4635C26.5572 42.4631 27.5682 43.4741 27.5682 44.7208C27.5682 45.9676 26.5572 46.9786 25.3104 46.9786C24.0637 46.9786 23.0527 45.9681 23.0527 44.7208C23.0541 43.4746 24.0642 42.465 25.3104 42.4635Z" fill="#000066"/>
<path d="M18.6365 51.8952V57.397C18.6365 57.8703 19.0242 58.2035 19.4974 58.2035H31.1234C31.3447 58.2149 31.5608 58.1351 31.7219 57.9826C31.883 57.8301 31.9748 57.6188 31.9757 57.397V51.8952C31.9734 50.9315 31.5861 50.0084 30.9002 49.3315C30.2142 48.6546 29.2858 48.2803 28.3221 48.2908C28.0539 48.2803 27.7967 48.4003 27.6318 48.613C27.4587 48.8439 27.2513 49.0466 27.0165 49.2149C25.734 50.1408 23.947 49.875 22.989 48.6163C22.8251 48.4027 22.5679 48.2817 22.2988 48.2908C21.3341 48.2798 20.4048 48.6536 19.7173 49.3305C19.0294 50.0074 18.6403 50.9305 18.6365 51.8952ZM20.3498 51.8952C20.3522 50.9654 21.0104 50.1666 21.9225 49.9864C22.7921 50.9358 24.0202 51.4769 25.308 51.4769C26.5954 51.4769 27.8235 50.9358 28.693 49.9864C29.6047 50.1666 30.2615 50.9659 30.2624 51.8952V56.4902H20.3498V51.8952Z" fill="#000066"/>
<path d="M39.3446 48.6919C41.5379 48.6919 43.3157 46.9141 43.3157 44.7208C43.3157 42.5276 41.5379 40.7498 39.3446 40.7498C37.1514 40.7498 35.3735 42.5281 35.3735 44.7208C35.3764 46.9131 37.1523 48.6891 39.3446 48.6919ZM39.3446 42.4635C40.5914 42.4631 41.6024 43.4741 41.6024 44.7208C41.6024 45.9676 40.5914 46.9786 39.3446 46.9786C38.0979 46.9786 37.0868 45.9681 37.0868 44.7208C37.0883 43.4746 38.0984 42.465 39.3446 42.4635Z" fill="#000066"/>
<path d="M32.71 51.8952V57.397C32.7038 57.6155 32.7889 57.8263 32.9448 57.9793C33.1006 58.1322 33.3133 58.2135 33.5313 58.2035H45.1573C45.6305 58.2035 46.0488 57.8703 46.0488 57.397V51.8952C46.0493 49.8784 44.3738 48.2908 42.3569 48.2908C42.0882 48.2803 41.8311 48.4003 41.6666 48.613C41.4936 48.8439 41.2856 49.0471 41.0504 49.2149C39.7683 50.1408 37.9814 49.875 37.0239 48.6163C36.8594 48.4027 36.6022 48.2817 36.3331 48.2908C35.3722 48.2812 34.4482 48.6575 33.767 49.3348C33.0858 50.0122 32.7053 50.9348 32.71 51.8952ZM34.4233 51.8952C34.4171 50.9693 35.0682 50.1685 35.9765 49.9864C37.5564 51.7136 40.1847 51.9708 42.0691 50.5821C42.3144 50.4057 42.5424 50.2063 42.7494 49.9859C43.6644 50.1647 44.3279 50.9626 44.336 51.8952V56.4902H34.4233V51.8952Z" fill="#000066"/>
<path d="M53.379 48.6919C55.5718 48.6919 57.3497 46.9141 57.3497 44.7208C57.3497 42.5276 55.5718 40.7498 53.3786 40.7498C51.1858 40.7498 49.408 42.5281 49.408 44.7208C49.4103 46.9131 51.1867 48.6895 53.379 48.6919ZM53.379 42.4635C54.6258 42.4635 55.6364 43.4741 55.6364 44.7208C55.6364 45.9676 54.6258 46.9786 53.379 46.9786C52.1318 46.9786 51.1213 45.9676 51.1213 44.7208C51.1227 43.4746 52.1328 42.465 53.379 42.4635Z" fill="#000066"/>
<path d="M56.3902 48.2908C56.1216 48.2803 55.8644 48.4003 55.6999 48.613C55.5269 48.8439 55.3189 49.0466 55.0842 49.2149C53.8078 50.1614 52.0056 49.8951 51.0572 48.6197C50.8932 48.4055 50.6365 48.2832 50.3674 48.2908C48.3501 48.2908 46.6611 49.8784 46.6611 51.8952V57.397C46.6611 57.8703 47.0923 58.2035 47.5656 58.2035H59.1915C59.4086 58.213 59.6189 58.1313 59.7728 57.9778C59.9263 57.8244 60.0085 57.614 59.9994 57.397V51.8952C60.0071 50.9363 59.6294 50.0141 58.9506 49.3368C58.2723 48.6589 57.3497 48.2822 56.3907 48.2908H56.3902ZM56.7392 49.9855C57.647 50.1681 58.2962 50.9697 58.2871 51.8952V56.4902H48.3744V51.8952C48.3864 50.9611 49.0523 50.1638 49.9697 49.9855C50.8397 50.9334 52.0678 51.4731 53.3547 51.4731C54.6416 51.4731 55.8696 50.9334 56.7397 49.9855H56.7392Z" fill="#000066"/>
<path d="M10.6206 13.1442C13.2928 13.1404 15.4564 10.972 15.4545 8.29977V6.70407C15.4545 4.03421 13.2904 1.87012 10.6206 1.87012C7.95072 1.87012 5.78662 4.03421 5.78662 6.70407V8.29977C5.78423 10.972 7.94833 13.1404 10.6206 13.1442ZM7.49992 6.70407C7.49992 4.98073 8.89676 3.58342 10.6206 3.58342C12.3439 3.58342 13.7412 4.98073 13.7412 6.70407V8.29977C13.7412 10.0231 12.3439 11.4204 10.6206 11.4204C8.89676 11.4204 7.49992 10.0231 7.49992 8.29977V6.70407Z" fill="#000066"/>
<path d="M0.0344554 30.8557C0.0306311 31.6569 0.349963 32.4261 0.919788 32.9892C1.48961 33.5529 2.26213 33.8631 3.06332 33.8502H3.06476L3.0987 33.8808C3.62311 33.8794 4.13796 33.7398 4.59067 33.4749L5.13516 51.8045C5.18057 53.1186 6.01571 54.275 7.24905 54.731C8.4824 55.1876 9.8692 54.8534 10.7593 53.8854C11.6485 54.8553 13.0362 55.1909 14.27 54.7344C15.5043 54.2783 16.3395 53.121 16.3839 51.8059L16.928 33.5156C17.3787 33.7756 17.8907 33.9128 18.4118 33.9123C19.2206 33.9104 19.9955 33.5873 20.5658 33.0131C21.1357 32.4395 21.4541 31.6627 21.4507 30.8538V18.637C21.7198 15.9093 19.7321 13.4775 17.0054 13.1983C16.8414 13.1802 16.6765 13.1701 16.5116 13.1682H14.4111C14.1931 13.1701 13.9832 13.2547 13.825 13.4048L10.7593 16.2841L7.81266 13.4144C7.653 13.2581 7.43884 13.1696 7.21559 13.1682H4.98648C3.6604 13.1677 2.38833 13.696 1.4528 14.6358C0.516799 15.5752 -0.00617808 16.8491 -0.000441582 18.1752C-0.000441582 18.3282 0.0344554 18.4845 0.0344554 18.637V30.8557ZM13.1667 53.2228C12.7637 53.2214 12.378 53.0593 12.0954 52.7725C11.8124 52.4857 11.6556 52.0975 11.6604 51.6945V33.6771C11.6604 33.2039 11.2766 32.8205 10.8038 32.8205C10.3305 32.8205 9.94712 33.2039 9.94712 33.6771V51.6945C9.93708 52.5311 9.26304 53.208 8.42647 53.2209C7.5899 53.2343 6.89483 52.5794 6.85849 51.7438L6.22127 30.6684H15.2974L14.6831 51.7385C14.662 52.5617 13.9904 53.2195 13.1667 53.2228ZM2.66225 15.8486C3.27701 15.229 4.11406 14.881 4.98648 14.8815H6.86758L10.1512 18.0806C10.157 18.0858 10.1627 18.093 10.1685 18.0978C10.1799 18.1088 10.1919 18.1202 10.2038 18.1303C10.2139 18.1389 10.2244 18.1475 10.2349 18.1556C10.2454 18.1633 10.2593 18.1738 10.2722 18.1824C10.2851 18.1905 10.2947 18.1972 10.3061 18.2039C10.3176 18.2111 10.331 18.2192 10.3444 18.2259C10.3578 18.2326 10.3688 18.2383 10.3812 18.2445C10.3931 18.2512 10.4056 18.256 10.4185 18.2613C10.4319 18.2665 10.4452 18.2723 10.4586 18.277C10.472 18.2818 10.483 18.2856 10.4964 18.289C10.5098 18.2928 10.5241 18.2971 10.538 18.3009C10.5518 18.3043 10.5633 18.3067 10.5762 18.3095C10.5891 18.3119 10.6044 18.3148 10.6188 18.3172C10.6331 18.3191 10.6451 18.3205 10.658 18.322C10.6709 18.3234 10.6862 18.3248 10.7 18.3253C10.7139 18.3263 10.7268 18.3268 10.7402 18.3268H10.7813C10.7952 18.3268 10.809 18.3253 10.8229 18.3244C10.8368 18.3229 10.8497 18.3215 10.8626 18.3196C10.876 18.3177 10.8908 18.3158 10.9051 18.3129C10.919 18.3105 10.9304 18.3081 10.9434 18.3048C10.9563 18.3019 10.9716 18.2981 10.9854 18.2943C10.9993 18.2899 11.0108 18.2866 11.0232 18.2818C11.0356 18.277 11.0504 18.2723 11.0638 18.267C11.0772 18.2613 11.0882 18.2565 11.1011 18.2512C11.114 18.2455 11.1269 18.2388 11.1398 18.2326C11.1523 18.2259 11.1642 18.2192 11.1766 18.2125C11.1886 18.2053 11.201 18.1982 11.213 18.19C11.2254 18.1824 11.2378 18.1743 11.2488 18.1657C11.2598 18.1571 11.2718 18.1489 11.2828 18.1398C11.2938 18.1308 11.3052 18.1212 11.3158 18.1116C11.322 18.1064 11.3287 18.0968 11.3349 18.0911L14.7505 14.8815H16.5111C17.4963 14.8968 18.4261 15.3409 19.0576 16.0977C19.6055 16.7746 19.8588 17.6432 19.7613 18.5084C19.7584 18.5371 19.7369 18.5672 19.7369 18.5959V30.8538C19.7369 31.5972 19.1346 32.2 18.3908 32.2C17.6474 32.2 17.0446 31.5972 17.0446 30.8538V28.1859L17.057 27.7595C17.0585 27.6997 17.0446 27.6414 17.0446 27.5845V22.6492C17.0446 22.1759 16.6612 21.7926 16.1879 21.7926C15.7152 21.7926 15.3313 22.1759 15.3313 22.6492V28.1596L15.348 28.955H6.17059L6.14956 27.6968C6.14813 27.6567 6.15338 27.629 6.15338 27.5902V22.6492C6.15338 22.1759 5.76952 21.7926 5.29673 21.7926C4.82347 21.7926 4.44008 22.1759 4.44008 22.6492V30.7936C4.43865 31.1521 4.29476 31.4954 4.03996 31.7473C3.78469 31.9992 3.44002 32.1398 3.08149 32.1369H3.06332C2.71483 32.1493 2.37686 32.0179 2.12732 31.7741C1.87922 31.5336 1.74202 31.2009 1.74776 30.8553V18.5959C1.74776 18.5667 1.73246 18.5381 1.72959 18.5094C1.71859 18.3989 1.70617 18.2856 1.70617 18.1752C1.70091 17.3033 2.04557 16.4653 2.66225 15.8486Z" fill="#000066"/>
<path d="M23.284 9.61911H24.633V27.1192C24.6349 28.0318 25.0001 28.9057 25.6474 29.5487C26.2952 30.1916 27.1714 30.5501 28.084 30.5458H38.8614L32.9199 35.8516C32.6541 36.0892 32.5623 36.4664 32.6885 36.7996C32.8147 37.1333 33.1335 37.3546 33.4902 37.3565C33.7 37.3575 33.9027 37.281 34.0595 37.1414L40.6254 31.2925L47.1913 37.1423C47.5441 37.4569 48.0857 37.4258 48.4007 37.0725C48.7153 36.715 48.6842 36.171 48.331 35.8511L42.3894 30.5458H53.1668C54.0746 30.5487 54.9456 30.1878 55.5857 29.5443C56.2258 28.9004 56.5815 28.027 56.5738 27.1192V9.61911H58.0103C58.4941 9.61099 58.8856 9.2233 58.899 8.73952V2.85818C58.8808 2.38492 58.4836 2.01539 58.0103 2.03164H23.284C23.0603 2.02495 22.8432 2.10909 22.6826 2.26445C22.522 2.42029 22.4307 2.63445 22.4302 2.85818V8.73952C22.4269 9.2166 22.8069 9.60812 23.284 9.61911ZM54.8605 27.1192C54.8691 27.5729 54.6937 28.0108 54.3748 28.333C54.056 28.6557 53.6205 28.8359 53.1668 28.8325H28.084C27.626 28.8378 27.1848 28.6595 26.8583 28.3378C26.5323 28.0161 26.3477 27.5777 26.3463 27.1192V9.61911H54.8605V27.1192ZM24.1435 3.74494H57.1857V7.90581H24.1435V3.74494Z" fill="#000066"/>
<path d="M30.2624 16.35H46.0492C46.522 16.35 46.9059 15.9666 46.9059 15.4934C46.9059 15.0206 46.522 14.6367 46.0492 14.6367H30.2624C29.7892 14.6367 29.4058 15.0206 29.4058 15.4934C29.4058 15.9666 29.7892 16.35 30.2624 16.35Z" fill="#000066"/>
<path d="M30.2624 19.7767H51.0668C51.5395 19.7767 51.9234 19.3933 51.9234 18.92C51.9234 18.4472 51.5395 18.0634 51.0668 18.0634H30.2624C29.7892 18.0634 29.4058 18.4472 29.4058 18.92C29.4058 19.3933 29.7892 19.7767 30.2624 19.7767Z" fill="#000066"/>
<path d="M30.2624 23.0809H51.0668C51.5395 23.0809 51.9234 22.6975 51.9234 22.2242C51.9234 21.7514 51.5395 21.3676 51.0668 21.3676H30.2624C29.7892 21.3676 29.4058 21.7514 29.4058 22.2242C29.4058 22.6975 29.7892 23.0809 30.2624 23.0809Z" fill="#000066"/>
</g>
<defs>
<clipPath id="clip0">
<rect width="60" height="60" fill="white"/>
</clipPath>
</defs>
</svg>
