<svg width="60" height="60" viewBox="0 0 60 60" fill="none" xmlns="http://www.w3.org/2000/svg">
<path d="M18.3996 3.51562C17.9142 3.51562 17.5207 3.90914 17.5207 4.39453C17.5207 4.87992 17.9142 5.27344 18.3996 5.27344C18.885 5.27344 19.2785 4.87992 19.2785 4.39453C19.2785 3.90914 18.885 3.51562 18.3996 3.51562ZM21.9152 3.51562C21.4298 3.51562 21.0363 3.90914 21.0363 4.39453C21.0363 4.87992 21.4298 5.27344 21.9152 5.27344C22.4006 5.27344 22.7941 4.87992 22.7941 4.39453C22.7941 3.90914 22.4006 3.51562 21.9152 3.51562ZM14.884 3.51562C14.3986 3.51562 14.0051 3.90914 14.0051 4.39453C14.0051 4.87992 14.3986 5.27344 14.884 5.27344C15.3694 5.27344 15.7629 4.87992 15.7629 4.39453C15.7629 3.90914 15.3694 3.51562 14.884 3.51562ZM56.3897 3.51562H49.5105V2.28516C49.5105 1.02516 48.4854 0 47.2254 0H12.7746C11.5146 0 10.4895 1.02516 10.4895 2.28516V5.04375H4.39453C1.97133 5.04375 0 7.01508 0 9.43828V42.5344C0 44.9576 1.97133 46.9289 4.39453 46.9289H24.9473L24.278 51.9041H23.2986C22.4852 51.9041 21.7655 52.4515 21.5482 53.235L20.3105 57.6981C20.1573 58.2497 20.2684 58.8274 20.6148 59.283C20.9612 59.7387 21.4883 60 22.0608 60H37.9392C38.5117 60 39.0388 59.7387 39.3852 59.283C39.7316 58.8274 39.8426 58.2497 39.6896 57.6982L38.4518 53.2352C38.2345 52.4515 37.5149 51.9041 36.7014 51.9041H35.722L35.0527 46.9289H55.6055C58.0287 46.9289 60 44.9576 60 42.5344V7.12582C60 5.13516 58.3805 3.51562 56.3897 3.51562ZM12.2473 8.78906H26.4844C26.9699 8.78906 27.3633 8.39555 27.3633 7.91016C27.3633 7.42477 26.9699 7.03125 26.4844 7.03125H12.2473V2.28516C12.2473 1.99441 12.4839 1.75781 12.7746 1.75781H47.2254C47.5161 1.75781 47.7527 1.99441 47.7527 2.28516V3.51562H41.9592C40.0002 3.51562 38.402 5.08418 38.3515 7.03125H30.5859C30.1004 7.03125 29.707 7.42477 29.707 7.91016C29.707 8.39555 30.1004 8.78906 30.5859 8.78906H38.349V13.352C38.349 15.3427 39.9684 16.9622 41.9592 16.9622H43.7007V18.6486C43.7007 19.1531 44.0019 19.6039 44.4681 19.7971C44.9295 19.9882 45.4641 19.8865 45.823 19.5277L47.7528 17.5978V31.316C47.7528 31.8014 48.1462 32.1949 48.6318 32.1949C49.1173 32.1949 49.5107 31.8014 49.5107 31.316V16.9622H54.7266V39.8977H49.5105V35.4176C49.5105 34.9322 49.1171 34.5387 48.6316 34.5387C48.1461 34.5387 47.7527 34.9322 47.7527 35.4176V39.8975H40.8516V34.6992C40.8516 32.3188 39.4202 30.218 37.2055 29.3474L34.8311 28.4133C34.2243 28.1747 33.8321 27.5992 33.8321 26.9473V25.9539C35.3078 24.8077 36.26 23.0181 36.26 21.0091V14.4464C36.26 12.4095 34.6028 10.7523 32.5659 10.7523H27.4344C25.3975 10.7523 23.7403 12.4096 23.7403 14.4464V21.0091C23.7403 23.018 24.6926 24.8077 26.1682 25.9539V26.9473C26.1682 27.5992 25.776 28.1747 25.1691 28.4133L22.7951 29.3473C20.5801 30.218 19.1488 32.3188 19.1488 34.6992V39.8977H12.2473V8.78906ZM34.6992 36.5883C34.2137 36.5883 33.8203 36.9818 33.8203 37.4672V39.8977H26.1797V37.4672C26.1797 36.9818 25.7863 36.5883 25.3008 36.5883C24.8153 36.5883 24.4219 36.9818 24.4219 37.4672V39.8977H20.9062V34.6992C20.9062 33.0464 21.8999 31.5878 23.4381 30.9832L25.6001 30.1327C26.7709 31.281 28.34 31.9286 29.9999 31.9286C31.6597 31.9286 33.2289 31.281 34.3997 30.1327L36.5619 30.9832C38.0999 31.5878 39.0936 33.0464 39.0936 34.6992V39.8977H35.578V37.4672C35.5781 36.9818 35.1846 36.5883 34.6992 36.5883ZM26.1564 19.67C27.3921 19.67 28.614 19.4626 29.7571 19.0539C30.4188 18.8171 31.0577 18.5133 31.6629 18.1474C31.9788 18.5034 32.4169 18.8801 33.0057 19.1645C33.5402 19.4227 34.058 19.5345 34.5022 19.5728V21.0093C34.5022 23.4918 32.4826 25.5114 30.0001 25.5114C27.5176 25.5114 25.498 23.4918 25.498 21.0093V19.6486C25.7176 19.6616 25.9372 19.67 26.1564 19.67ZM25.4979 17.888V14.4464C25.4979 13.3787 26.3665 12.5101 27.4342 12.5101H32.5657C33.6334 12.5101 34.502 13.3788 34.502 14.4464V17.8049C34.2764 17.772 34.0264 17.7055 33.77 17.5816C33.2452 17.3282 32.922 16.9482 32.7432 16.6743C32.5813 16.4257 32.3214 16.2499 32.0303 16.192C31.7379 16.1341 31.4295 16.1974 31.1832 16.3659C30.5543 16.7972 29.8752 17.1446 29.1649 17.3987C28.0099 17.8117 26.7554 17.9771 25.4979 17.888ZM32.8868 29.1305C32.081 29.7982 31.0668 30.1707 30 30.1707C28.9332 30.1707 27.919 29.7982 27.1132 29.1305C27.627 28.5389 27.9258 27.7729 27.9258 26.9474V26.9145C28.5754 27.1433 29.2731 27.2692 30 27.2692C30.7269 27.2692 31.4247 27.1433 32.0742 26.9145V26.9474C32.0742 27.7729 32.373 28.5389 32.8868 29.1305ZM36.7015 53.6619C36.7277 53.6619 36.7509 53.6795 36.7579 53.7047V53.7048L37.9957 58.168C38.0068 58.1964 37.9697 58.2455 37.9392 58.2422H22.0608C22.0302 58.2453 21.9928 58.1967 22.0044 58.1679L23.2423 53.7046C23.2493 53.6794 23.2725 53.6618 23.2986 53.6618H36.7015V53.6619ZM26.0515 51.9041L26.7209 46.9289H33.279L33.9484 51.9041H26.0515ZM58.2422 42.5344C58.2422 43.9883 57.0593 45.1711 55.6055 45.1711H4.39453C2.9407 45.1711 1.75781 43.9883 1.75781 42.5344V9.43828C1.75781 7.98434 2.9407 6.80156 4.39453 6.80156H10.4895V8.55937H4.86328C4.1202 8.55937 3.51562 9.16395 3.51562 9.90703V40.3078C3.51562 41.0509 4.1202 41.6555 4.86328 41.6555H55.1367C55.8798 41.6555 56.4844 41.0509 56.4844 40.3078V16.9598C57.1255 16.9432 57.7256 16.7595 58.2422 16.4494V42.5344ZM10.4895 10.3172V39.8977H5.27344V10.3172H10.4895ZM58.2422 13.352C58.2422 14.3734 57.4112 15.2044 56.3897 15.2044C55.4089 15.2044 49.277 15.2044 48.288 15.2044C47.883 15.2044 47.5022 15.3621 47.216 15.6485L45.4586 17.4061V16.7207C45.4586 15.8846 44.7784 15.2045 43.9424 15.2045H41.9592C40.9378 15.2045 40.1068 14.3735 40.1068 13.3521V7.12594C40.1068 6.10453 40.9378 5.27355 41.9592 5.27355H56.3898C57.4112 5.27344 58.2422 6.10441 58.2422 7.12582V13.352ZM55.1445 11.1178H43.2045C42.7189 11.1178 42.3255 11.5113 42.3255 11.9967C42.3255 12.4821 42.7189 12.8756 43.2045 12.8756H55.1446C55.6301 12.8756 56.0235 12.4821 56.0235 11.9967C56.0235 11.5113 55.63 11.1178 55.1445 11.1178ZM55.1445 7.60219H43.2045C42.7189 7.60219 42.3255 7.9957 42.3255 8.48109C42.3255 8.96649 42.7189 9.36 43.2045 9.36H55.1446C55.6301 9.36 56.0235 8.96649 56.0235 8.48109C56.0235 7.9957 55.63 7.60219 55.1445 7.60219Z" fill="#000066"/>
</svg>
