<svg width="44" height="36" viewBox="0 0 44 36" fill="none" xmlns="http://www.w3.org/2000/svg">
<path fill-rule="evenodd" clip-rule="evenodd" d="M7.51416 16.5198L7.88897 18.5618L14.0287 13.6577C14.4035 13.3397 14.4928 13.2225 14.8676 12.938L21.7034 7.38119L30.2704 14.3439C30.7166 14.7456 31.4662 15.298 32.0195 15.7164L34.5897 17.8421C34.9823 18.1935 34.9823 18.227 35.3571 18.5115C36.1603 17.5408 35.839 3.43116 35.8033 1.02098V0H7.51416V16.5198Z" fill="#000066"/>
<path fill-rule="evenodd" clip-rule="evenodd" d="M9.97705 23.3655L9.9949 23.4491C11.8332 25.7087 12.7613 26.8134 15.0994 28.6043C15.9918 29.2905 20.5966 32.3534 21.7032 32.3367C22.9347 32.32 28.307 28.7382 29.6456 27.4828C30.663 26.5288 32.9297 24.4701 33.3045 23.3152L21.8817 13.8921C21.2035 14.0427 20.793 14.6453 20.2932 15.0135L16.5987 17.9927C16.331 18.2103 16.1882 18.3944 15.9205 18.5953L12.922 21.0055C12.4044 21.4741 10.4054 23.1813 9.97705 23.3655Z" fill="#000066"/>
<path fill-rule="evenodd" clip-rule="evenodd" d="M10.2271 24.0015C11.4407 24.5706 12.4224 26.2945 13.2255 27.3824C13.7967 28.1524 13.636 27.9515 14.814 28.0854C17.7411 28.4536 21.2928 30.0939 21.5784 30.0939C21.8283 30.0939 24.1842 29.0897 24.7732 28.8888C30.556 26.9473 28.0929 29.575 30.788 26.1439C31.1271 25.7254 31.4841 25.2401 31.7875 24.9053C32.3051 24.3362 32.4657 24.5036 32.9298 23.6667C28.1643 24.4701 27.8966 24.6375 23.9522 26.2276C22.7564 26.7129 22.4708 27.0644 21.6141 27.6837C21.0073 27.2485 20.3469 26.6795 19.4366 26.2276C17.9553 25.4744 12.9043 23.9011 11.1195 23.7839C10.12 23.7504 10.6376 23.7002 10.2271 24.0015Z" fill="#FEFEFE"/>
<path fill-rule="evenodd" clip-rule="evenodd" d="M8.33496 20.018C8.4599 20.5033 8.54914 20.6205 8.74547 21.0891C8.83471 21.2733 8.83471 21.3737 8.95964 21.5913C9.22736 22.0767 8.95964 21.8591 9.37015 22.0097C10.7088 21.1394 12.6542 19.2648 13.9749 18.2773C14.5282 17.8588 15.0101 17.4404 15.5634 17.022L17.0448 15.8001C17.9551 14.9967 20.9714 12.4694 21.721 12.0342L32.4298 20.7209C32.8403 21.1059 33.5721 21.7419 33.9648 21.993C34.5716 21.6917 35.0714 20.4029 34.875 19.9175L23.3273 10.4442C22.8811 10.0592 22.1315 9.37297 21.5425 9.17212L12.44 16.6872C12.1366 16.9048 11.9581 17.1056 11.6725 17.3567L8.33496 20.018Z" fill="#000066"/>
<path fill-rule="evenodd" clip-rule="evenodd" d="M7.88916 18.5785L8.33536 20.0347L11.6729 17.3734C11.9585 17.1391 12.1191 16.9215 12.4404 16.7039L21.5429 9.18885C22.1498 9.3897 22.8994 10.0759 23.3277 10.4609L34.8754 19.9343C35.3216 19.7334 35.0539 20.1351 35.2859 19.4824C35.3752 19.1643 35.393 18.8631 35.3752 18.5451C35.0004 18.2605 35.0004 18.227 34.6077 17.8756L32.0376 15.7332C31.4843 15.3147 30.7347 14.7624 30.2885 14.3607L21.7214 7.39795L14.8856 12.9548C14.5108 13.2226 14.4037 13.3565 14.0467 13.6745L7.88916 18.5785Z" fill="#ED3237"/>
<path fill-rule="evenodd" clip-rule="evenodd" d="M9.37012 22.0097C9.38797 22.629 9.70923 22.9804 9.97695 23.3654C10.3875 23.1813 12.3864 21.4741 12.9219 21.0054L15.9204 18.5952C16.1702 18.3944 16.3309 18.2103 16.5986 17.9927L20.2931 14.9967C20.775 14.6452 21.1855 14.0259 21.8816 13.8753L33.3044 23.2984C33.6792 22.9804 33.9826 22.5453 33.9826 21.9929C33.5899 21.7419 32.8582 21.0891 32.4476 20.7209L21.7388 12.0342C20.9714 12.4526 17.955 14.9967 17.0626 15.8001L15.5812 17.0219C15.028 17.4404 14.5461 17.8421 13.9928 18.2772C12.6542 19.2647 10.7087 21.1561 9.37012 22.0097Z" fill="#ED3237"/>
<path d="M9.58447 4.88742H10.6197C11.3336 4.88742 11.8155 4.50246 11.8155 3.88318C11.8155 3.26389 11.3336 2.84546 10.6197 2.84546H9.58447V4.88742ZM10.2092 4.41877V3.29737H10.6018C10.9766 3.29737 11.2086 3.49822 11.2086 3.86644C11.2086 4.21793 10.9588 4.41877 10.6018 4.41877H10.2092Z" fill="#FEFEFE"/>
<path d="M12.7616 4.43551V4.06729H13.7076V3.63212H12.7616V3.29737H13.8503V2.84546H12.1548V4.88742H13.886V4.43551H12.7616Z" fill="#FEFEFE"/>
<path d="M14.2251 4.88742H15.8671V4.41877H14.8319V2.84546H14.2251V4.88742Z" fill="#FEFEFE"/>
<path d="M16.1167 4.88742H16.7235V2.84546H16.1167V4.88742Z" fill="#FEFEFE"/>
<path d="M18.598 4.36835C18.5087 4.41856 18.3838 4.4353 18.2589 4.4353C17.9019 4.4353 17.652 4.20097 17.652 3.86622C17.652 3.51474 17.9019 3.28041 18.2589 3.28041C18.473 3.28041 18.6337 3.3641 18.7943 3.51474L19.187 3.17999C18.9728 2.94567 18.6337 2.81177 18.2232 2.81177C17.5271 2.81177 17.0273 3.24694 17.0273 3.86622C17.0273 4.46877 17.5271 4.92068 18.2232 4.92068C18.5444 4.92068 18.8835 4.83699 19.1513 4.66962V3.83275H18.598V4.36835Z" fill="#FEFEFE"/>
<path d="M20.9716 2.84546V3.61538H20.1506V2.84546H19.5259V4.88742H20.1506V4.08403H20.9716V4.88742H21.5963V2.84546H20.9716Z" fill="#FEFEFE"/>
<path d="M22.4885 4.88742H23.0953V3.29737H23.7557V2.84546H21.8281V3.29737H22.4885V4.88742Z" fill="#FEFEFE"/>
<path d="M24.7374 4.92089C25.3799 4.92089 25.7012 4.61962 25.7012 4.28487C25.7012 3.53169 24.4697 3.76601 24.4697 3.46474C24.4697 3.36432 24.5589 3.28063 24.8266 3.28063C25.0051 3.28063 25.2193 3.33084 25.4335 3.43127L25.612 3.01283C25.3978 2.89567 25.1122 2.84546 24.8266 2.84546C24.1841 2.84546 23.8628 3.14673 23.8628 3.49822C23.8628 4.2514 25.0944 4.01707 25.0944 4.33508C25.0944 4.43551 25.0051 4.50246 24.7374 4.50246C24.4875 4.50246 24.2198 4.41877 24.0235 4.30161L23.8271 4.72004C24.0413 4.8372 24.3804 4.92089 24.7374 4.92089Z" fill="#FEFEFE"/>
<path d="M27.0752 4.92068C27.7713 4.92068 28.271 4.48551 28.271 3.86622C28.271 3.24694 27.7713 2.81177 27.0752 2.81177C26.397 2.81177 25.8794 3.26368 25.8794 3.86622C25.8794 4.46877 26.3791 4.92068 27.0752 4.92068ZM27.0752 4.4353C26.7361 4.4353 26.5041 4.20097 26.5041 3.86622C26.5041 3.51474 26.7539 3.28041 27.0752 3.28041C27.3965 3.28041 27.6642 3.51474 27.6642 3.86622C27.6642 4.21771 27.3965 4.4353 27.0752 4.4353Z" fill="#FEFEFE"/>
<path d="M31.1267 4.88742L31.1089 2.84546H30.6091L29.8773 4.01708L29.1099 2.84546H28.5923V4.88742H29.1634V3.83297L29.7167 4.68657H29.9844L30.5377 3.79949L30.5556 4.88742H31.1267Z" fill="#FEFEFE"/>
<path d="M32.1442 4.43551V4.06729H33.1258V3.63212H32.1442V3.29737H33.2507V2.84546H31.5552V4.88742H33.2864V4.43551H32.1442Z" fill="#FEFEFE"/>
<path d="M9.85219 6.3939V6.22647H10.2805V6.04229H9.85219V5.8916H10.3341V5.69067H9.58447V6.59482H10.3698V6.3939H9.85219Z" fill="#FEFEFE"/>
<path d="M10.7803 6.59482H11.2265C11.5477 6.59482 11.7619 6.42739 11.7619 6.14275C11.7619 5.85811 11.5477 5.69067 11.2265 5.69067H10.7803V6.59482ZM11.048 6.3939V5.8916H11.2086C11.3871 5.8916 11.4942 5.97531 11.4942 6.14275C11.4942 6.29344 11.3871 6.37716 11.2086 6.37716H11.048V6.3939Z" fill="#FEFEFE"/>
<path d="M12.6006 6.61157C12.8862 6.61157 13.0468 6.46087 13.0468 6.19298V5.69067H12.7969V6.17623C12.7969 6.34367 12.7255 6.3939 12.6184 6.3939C12.5114 6.3939 12.44 6.34367 12.44 6.17623V5.69067H12.1722V6.19298C12.1544 6.46087 12.315 6.61157 12.6006 6.61157Z" fill="#FEFEFE"/>
<path d="M13.9749 6.6117C14.1534 6.6117 14.2962 6.56147 14.3854 6.44427L14.2069 6.29358C14.1534 6.36055 14.0641 6.39404 13.9927 6.39404C13.8321 6.39404 13.725 6.29358 13.725 6.14289C13.725 5.97545 13.8321 5.89174 13.9927 5.89174C14.082 5.89174 14.1534 5.92522 14.2069 5.9922L14.3854 5.84151C14.2962 5.7243 14.1534 5.67407 13.9749 5.67407C13.6715 5.67407 13.4395 5.87499 13.4395 6.14289C13.4395 6.41078 13.6715 6.6117 13.9749 6.6117Z" fill="#FEFEFE"/>
<path d="M15.4563 6.59482H15.7418L15.3313 5.69067H15.0636L14.6353 6.59482H14.903L14.9744 6.42739H15.3849L15.4563 6.59482ZM15.0636 6.22647L15.1885 5.94183L15.3135 6.22647H15.0636Z" fill="#FEFEFE"/>
<path d="M16.2416 6.59482H16.5093V5.8916H16.8128V5.69067H15.9561V5.8916H16.2416V6.59482Z" fill="#FEFEFE"/>
<path d="M17.1699 6.59482H17.4376V5.69067H17.1699V6.59482Z" fill="#FEFEFE"/>
<path d="M18.3836 6.61157C18.687 6.61157 18.919 6.41064 18.919 6.15949C18.919 5.8916 18.7048 5.69067 18.3836 5.69067C18.0802 5.69067 17.8481 5.8916 17.8481 6.15949C17.8481 6.41064 18.0802 6.61157 18.3836 6.61157ZM18.3836 6.3939C18.2408 6.3939 18.1337 6.29344 18.1337 6.14275C18.1337 5.97531 18.2408 5.8916 18.3836 5.8916C18.5264 5.8916 18.6335 5.97531 18.6335 6.14275C18.6335 6.29344 18.5085 6.3939 18.3836 6.3939Z" fill="#FEFEFE"/>
<path d="M19.9541 5.69067V6.15949L19.5257 5.69067H19.3115V6.59482H19.5792V6.10926L20.0076 6.59482H20.2218V5.69067H19.9541Z" fill="#FEFEFE"/>
<path d="M21.3823 6.59482H21.6678L21.2573 5.69067H20.9896L20.5791 6.59482H20.8468L20.9182 6.42739H21.3287L21.3823 6.59482ZM20.9896 6.22647L21.1145 5.94183L21.2395 6.22647H20.9896Z" fill="#FEFEFE"/>
<path d="M22.0063 6.59482H22.7381V6.3939H22.2741V5.69067H22.0063V6.59482Z" fill="#FEFEFE"/>
<path d="M23.5059 6.59482H23.7736V5.69067H23.5059V6.59482Z" fill="#FEFEFE"/>
<path d="M24.862 5.69067V6.15949L24.4515 5.69067H24.2373V6.59482H24.4872V6.10926L24.9155 6.59482H25.1297V5.69067H24.862Z" fill="#FEFEFE"/>
<path d="M25.9156 6.6117C26.2012 6.6117 26.344 6.47775 26.344 6.32706C26.344 5.9922 25.8085 6.09266 25.8085 5.95871C25.8085 5.92522 25.8442 5.87499 25.9513 5.87499C26.0405 5.87499 26.1298 5.89174 26.219 5.94197L26.3083 5.75779C26.219 5.70756 26.0941 5.67407 25.9513 5.67407C25.6657 5.67407 25.5408 5.80802 25.5408 5.97545C25.5408 6.31032 26.0762 6.20986 26.0762 6.34381C26.0762 6.39404 26.0405 6.41078 25.9335 6.41078C25.8085 6.41078 25.7014 6.37729 25.6122 6.32706L25.5229 6.51124C25.6122 6.57821 25.7728 6.6117 25.9156 6.6117Z" fill="#FEFEFE"/>
<path d="M26.9328 6.59482H27.2005V5.8916H27.4861V5.69067H26.6294V5.8916H26.9328V6.59482Z" fill="#FEFEFE"/>
<path d="M27.8428 6.59482H28.1105V5.69067H27.8428V6.59482Z" fill="#FEFEFE"/>
<path d="M28.7709 6.59482H29.0565V5.8916H29.342V5.69067H28.4854V5.8916H28.7709V6.59482Z" fill="#FEFEFE"/>
<path d="M30.1274 6.61157C30.4129 6.61157 30.5735 6.46087 30.5735 6.19298V5.69067H30.3058V6.17623C30.3058 6.34367 30.2523 6.3939 30.1274 6.3939C30.0024 6.3939 29.9489 6.34367 29.9489 6.17623V5.69067H29.6812V6.19298C29.6812 6.46087 29.8418 6.61157 30.1274 6.61157Z" fill="#FEFEFE"/>
<path d="M31.2162 6.59482H31.4839V5.8916H31.7874V5.69067H30.9307V5.8916H31.2162V6.59482Z" fill="#FEFEFE"/>
<path d="M32.4123 6.3939V6.22647H32.8406V6.04229H32.4123V5.8916H32.8942V5.69067H32.1445V6.59482H32.912V6.3939H32.4123Z" fill="#FEFEFE"/>
<path fill-rule="evenodd" clip-rule="evenodd" d="M19.133 17.3567L18.9902 18.4447C18.776 18.3945 18.8117 18.2438 18.4191 18.2438C17.7765 18.2438 17.4374 18.8631 17.366 19.4489C17.3125 19.9008 17.3839 20.4197 17.6694 20.6373C17.955 20.8381 18.4012 20.8046 18.6868 20.5368L18.8296 20.4364V20.6875L21.7031 20.6373L21.8102 19.7837L20.4716 19.8004L20.5251 19.2983L21.7031 19.2648C21.7745 19.0974 21.7923 18.6957 21.7923 18.4949L20.6144 18.5116L20.6322 18.1769C20.9356 18.043 21.5603 18.1434 21.8994 18.0932C21.9708 17.8756 21.9887 17.5576 21.9887 17.2898L19.133 17.3567Z" fill="#FEFEFE"/>
<path fill-rule="evenodd" clip-rule="evenodd" d="M21.8818 18.3106C22.1139 18.6621 22.685 18.8128 22.8456 19.5659C22.9884 20.4363 22.4173 20.7878 22.2745 21.1727C23.042 21.0556 23.863 20.202 24.1664 19.7166C24.5769 19.0806 24.9339 18.0763 24.9339 17.1558C24.8446 17.206 24.9339 17.139 24.8625 17.206C24.8446 17.2227 24.8268 17.2729 24.8089 17.2897C24.6126 17.6746 24.559 18.0428 23.8808 18.2939C23.1312 18.6287 22.6315 18.3776 21.8818 18.3106Z" fill="#FEFEFE"/>
<path fill-rule="evenodd" clip-rule="evenodd" d="M20.0076 17.4737C19.9541 17.6076 19.6328 20.2856 19.6328 20.5367L21.5783 20.4697L21.6675 19.9006L20.3467 19.9174L20.3824 19.3316C20.4003 19.1977 20.3646 19.2479 20.436 19.1809C20.5966 19.0805 21.3105 19.1977 21.5783 19.114C21.6318 19.0805 21.6318 18.9968 21.6318 18.8964C21.6496 18.8127 21.6496 18.7123 21.6496 18.6119L20.4538 18.6286L20.5074 18.0261C20.8286 17.9424 21.5069 18.0428 21.7924 17.9424L21.8281 17.8587V17.8419L21.8638 17.4235C21.5961 17.4068 20.1683 17.4235 20.0076 17.4737Z" fill="#000066"/>
<path fill-rule="evenodd" clip-rule="evenodd" d="M22.8991 16.5534C22.1673 16.8213 22.56 17.8761 23.2917 17.6417C23.8807 17.424 23.6844 16.2687 22.8991 16.5534Z" fill="#FEFEFE"/>
<path fill-rule="evenodd" clip-rule="evenodd" d="M18.5443 18.9468C18.2945 19.0305 18.2052 19.2147 18.1695 19.516C18.1517 19.7839 18.2052 20.1523 18.5443 20.0518C18.9905 19.9514 19.0441 18.7793 18.5443 18.9468Z" fill="#3E4095"/>
<path fill-rule="evenodd" clip-rule="evenodd" d="M12.9399 26.596L13.4932 26.8638L13.4754 27.6337C13.7074 27.55 13.8859 27.3826 14.0644 27.3491C14.1893 27.3157 14.5641 27.4161 14.7961 27.4328L14.5998 26.7131C14.7247 26.5792 14.8675 26.4788 15.0103 26.3784C14.9568 26.3114 15.0639 26.3616 14.8854 26.2947C14.7069 26.211 14.3499 26.2612 14.2785 26.2277C14.1001 26.0436 14.0822 25.8428 13.9037 25.6921C13.5289 26.5123 13.5646 26.3282 13.1006 26.4955L12.9399 26.596Z" fill="#0000FF"/>
<path fill-rule="evenodd" clip-rule="evenodd" d="M16.5094 22.1101C16.4916 22.1269 16.4916 22.1269 16.4738 22.1269L16.331 22.1771L16.1525 22.1938L15.1173 22.3612C14.9388 22.4281 14.3141 22.5453 14.1178 22.5285L11.7797 23.1646C11.6369 23.2483 11.1015 23.4156 10.9409 23.4156L8.60276 24.3027C8.51352 24.3864 7.81745 24.6877 7.67466 24.6877L7.46049 24.8216C7.13922 24.9889 6.3896 25.2735 6.19327 25.4576L6.40745 25.8593L6.78226 26.4618C6.15758 26.7798 5.58644 27.1146 4.97961 27.4661C4.62265 27.6669 3.49822 28.4703 3.28404 28.5205C3.17695 28.6879 0.356961 30.6797 0 31.2822C0.499745 31.2822 2.57012 31.1985 2.83784 31.3826L3.12341 31.3659L5.17594 31.617C5.15809 31.8848 5.10454 32.1526 5.08669 32.4204L4.96176 33.2405L4.90821 35.9519C5.08669 35.8683 5.63998 35.3829 5.80062 35.2322C6.05049 34.9979 6.3896 34.7301 6.69302 34.4958C7.03213 34.2447 8.2815 33.3242 8.65631 33.1903C8.76339 33.0229 9.42377 32.7216 9.6558 32.5877C9.97706 32.4204 10.4411 32.0856 10.7624 32.0521C10.8695 31.9182 10.9409 31.9182 11.1193 31.868C11.4584 31.4831 13.4753 31.1148 13.1719 30.3114C12.8863 29.5415 10.7624 30.278 10.3162 30.4621C10.7624 30.2947 11.3514 29.9934 11.9046 29.7758C12.4758 29.5583 12.9934 29.3741 13.6002 29.1733C14.7603 28.8051 16.0454 28.5038 17.2948 28.303L18.4549 28.1523L19.4722 28.0519C19.8113 28.0184 20.2575 27.9515 20.5967 28.0352C20.8108 27.9013 22.5956 28.0017 22.8098 28.0017L23.8093 28.0686C24.0235 28.0854 24.2198 28.1021 24.4518 28.1188C24.5411 28.1356 24.6482 28.1356 24.7374 28.1523L25.0051 28.236C25.2371 28.1858 25.7904 28.2695 26.0046 28.3532C26.2545 28.3866 27.95 28.7046 28.2713 28.8385C28.4319 28.9055 28.307 28.8553 28.3784 28.9055C28.6283 28.8888 29.0745 29.0394 29.2708 29.1231L30.3595 29.4746C30.5202 29.5248 30.538 29.5248 30.6451 29.6085C30.1632 29.6922 30.2346 29.7256 29.9669 29.96C30.0561 30.4453 30.1811 30.529 30.5737 30.7466C30.8236 30.8805 31.2519 31.0144 31.4126 31.1818C31.8945 31.3157 32.769 31.7843 33.2331 32.0354C33.5008 32.1693 33.7864 32.3199 34.0541 32.4873C34.3218 32.6379 34.6788 32.7718 34.8216 33.0062C35 33.0396 35.0714 33.1066 35.2678 33.2405C35.4284 33.3576 35.5355 33.4413 35.6783 33.525C35.9638 33.7259 36.2137 33.8765 36.4814 34.0941C36.6242 34.1945 37.9093 35.182 37.9807 35.3661C38.2305 35.4666 38.1591 35.5168 38.3912 35.6507L38.3198 32.8723L38.3019 32.3367C38.177 32.2028 38.1234 31.5165 38.1234 31.2822L39.2657 31.1316L40.1581 31.0479C41.1576 30.9977 41.6217 30.9642 42.639 30.9809C43.1209 30.9809 43.3172 31.0646 43.4065 30.8972L43.2458 30.8136C43.2101 30.7801 43.1923 30.7466 43.1387 30.7131L42.3891 30.0436C42.0143 29.7424 41.6931 29.4746 41.3361 29.1733L39.1586 27.5832L36.3922 25.9932L36.767 25.3404C36.5528 25.1396 36.0531 24.9555 35.7496 24.8048C35.5355 24.7044 34.8215 24.4199 34.6966 24.286L32.6084 23.4993C32.3764 23.4491 32.1622 23.3654 31.9659 23.2985C31.8409 23.2483 31.7517 23.2315 31.6267 23.198L31.3412 23.0641C31.2162 23.0809 29.485 22.6122 29.2887 22.5453C29.0566 22.4951 28.8425 22.4449 28.6461 22.4114C28.4319 22.3612 28.2535 22.3612 28.075 22.244C27.8787 22.2775 27.3432 22.1938 27.1647 22.1101C26.4687 22.0599 25.7012 21.9093 24.9694 21.8423C24.2555 21.7586 23.3809 21.7754 22.7563 21.6749L21.7389 21.6582L20.5788 21.6749C19.9006 21.6582 19.1688 21.7419 18.4906 21.7921C18.0979 21.9595 16.7415 22.1771 16.5094 22.1101Z" fill="#ED3237"/>
<path fill-rule="evenodd" clip-rule="evenodd" d="M28.2534 29.9437H29.3421L29.3243 29.207C29.128 29.1233 28.6818 28.9726 28.4319 28.9893C28.2177 28.9893 28.307 29.0061 28.2534 29.0228V29.9437Z" fill="#FDFDFD"/>
<path fill-rule="evenodd" clip-rule="evenodd" d="M22.81 28.9216H23.8809C23.8988 28.6707 23.9345 28.3865 23.8274 28.1523L22.8279 28.0854C22.7743 28.353 22.7743 28.654 22.81 28.9216Z" fill="#FDFDFD"/>
<path fill-rule="evenodd" clip-rule="evenodd" d="M18.4731 28.2527C18.4196 28.4868 18.4196 28.6875 18.4374 28.9383H19.5262C19.544 28.6707 19.5619 28.4032 19.4905 28.1523L18.4731 28.2527Z" fill="#FDFDFD"/>
<path d="M6.01509 29.5749L7.08597 29.123L6.94319 28.8217L6.26496 29.1063L5.78306 28.0853L5.37256 28.2527L6.01509 29.5749ZM7.49648 28.5874L7.40724 28.3364L8.04977 28.1188L7.92483 27.8342L7.2823 28.0518L7.19306 27.8175L7.92483 27.5832L7.81774 27.2819L6.67547 27.6669L7.21091 29.0226L8.37103 28.6209L8.26394 28.3196L7.49648 28.5874ZM9.69179 28.1857L10.1201 28.0518L8.96002 26.8969L8.56736 27.0308L8.42458 28.6042L8.85293 28.4703L8.87078 28.169L9.47761 27.9681L9.69179 28.1857ZM8.87078 27.851L8.88863 27.3489L9.24559 27.7338L8.87078 27.851ZM10.2451 28.0183L10.9412 27.8342C11.423 27.7003 11.6729 27.3321 11.548 26.9137C11.4052 26.4952 10.9947 26.3111 10.5128 26.445L9.81672 26.6459L10.2451 28.0183ZM10.5663 27.5999L10.3343 26.8467L10.5842 26.7798C10.8341 26.7128 11.0482 26.7965 11.1196 27.0476C11.191 27.2819 11.0661 27.466 10.8341 27.5497L10.5663 27.5999ZM12.3155 27.1647L12.2619 26.8969L12.9223 26.763L12.8509 26.4618L12.1905 26.6124L12.137 26.3781L12.9044 26.2107L12.833 25.8927L11.6551 26.1438L11.9942 27.5497L13.19 27.2986L13.1186 26.9806L12.3155 27.1647ZM14.368 27.0476L14.8142 26.9639L14.3858 26.5789C14.5465 26.445 14.6179 26.2777 14.5643 26.0768C14.4929 25.7588 14.1895 25.6082 13.779 25.6919L13.1008 25.8425L13.4399 27.2484L13.8504 27.1647L13.7611 26.7798L13.9932 26.7296L14.368 27.0476ZM14.1538 26.1605C14.1895 26.2944 14.1181 26.3781 13.9396 26.4116L13.6898 26.4618L13.6005 26.0433L13.8325 25.9931C14.011 25.9764 14.1181 26.0266 14.1538 26.1605ZM15.546 26.8802C15.9922 26.8133 16.1885 26.5622 16.1528 26.3111C16.0635 25.7755 15.2247 26.0768 15.189 25.8592C15.1711 25.7755 15.2247 25.7253 15.4032 25.6919C15.546 25.6751 15.6887 25.6919 15.8494 25.7421L15.9208 25.4241C15.7601 25.3571 15.546 25.3404 15.3496 25.3738C14.9034 25.4408 14.7071 25.6919 14.7428 25.9429C14.832 26.4785 15.6709 26.1772 15.7066 26.3948C15.7244 26.4618 15.653 26.5287 15.4746 26.5455C15.2961 26.5789 15.0997 26.5455 14.9391 26.4952L14.8499 26.8133C15.0462 26.8969 15.2961 26.9304 15.546 26.8802ZM17.2415 25.1563L17.3129 25.6919L16.7239 25.7588L16.6525 25.2232L16.2242 25.2734L16.4205 26.6961L16.8489 26.6459L16.7775 26.1103L17.3665 26.0433L17.4378 26.6124L17.8662 26.5622L17.6699 25.1395L17.2415 25.1563ZM18.1875 26.512L18.6158 26.4785L18.4909 25.0391L18.0625 25.0726L18.1875 26.512ZM19.5261 24.9721L18.83 25.0224L18.9371 26.4785L19.3654 26.445L19.3476 26.0601L19.6153 26.0433C20.0258 26.0266 20.2757 25.7923 20.2578 25.4743C20.2221 25.1395 19.9366 24.9554 19.5261 24.9721ZM19.5618 25.7253L19.3119 25.7421L19.2762 25.3236L19.5261 25.3069C19.7045 25.2902 19.8116 25.3738 19.8116 25.5077C19.8116 25.6416 19.7224 25.7086 19.5618 25.7253ZM22.6316 26.0935L22.4531 25.9597C22.5245 25.8592 22.5602 25.7588 22.5959 25.6249L22.2568 25.5412C22.239 25.6249 22.2211 25.6919 22.2033 25.7421L21.9713 25.5747C22.1676 25.4575 22.2568 25.3571 22.2568 25.2065C22.239 24.9889 22.0426 24.855 21.7749 24.855C21.4715 24.8717 21.2573 25.0224 21.2752 25.2399C21.2752 25.3236 21.3287 25.4241 21.418 25.5245C21.2038 25.6416 21.1145 25.7588 21.1145 25.9429C21.1324 26.1772 21.3823 26.3446 21.7392 26.3279C21.9356 26.3279 22.114 26.2777 22.2568 26.1605L22.4353 26.3111L22.6316 26.0935ZM21.7571 25.1228C21.8285 25.1228 21.882 25.1563 21.882 25.2065C21.882 25.2567 21.8463 25.3069 21.7214 25.3738C21.65 25.3069 21.6321 25.2734 21.6321 25.2232C21.6321 25.173 21.6857 25.1228 21.7571 25.1228ZM21.7392 26.0601C21.5964 26.0768 21.5072 26.0099 21.4894 25.9262C21.4894 25.8425 21.525 25.7923 21.6321 25.7253L21.9713 25.9931C21.8999 26.0433 21.8285 26.0601 21.7392 26.0601ZM23.9167 26.0266L23.9345 25.7588L24.6128 25.7755L24.6306 25.4575L23.9524 25.4408L23.9702 25.2065L24.7377 25.2232L24.7555 24.9052L23.5597 24.8717L23.5062 26.3111L24.7377 26.3446L24.7555 26.0266H23.9167ZM26.4154 26.4785L25.9157 25.6919L26.5047 25.0391L26.0406 25.0056L25.7015 25.3906L25.4338 24.9554L24.9519 24.9219L25.4338 25.6751L24.8091 26.3613L25.3088 26.4116L25.648 25.9931L25.9335 26.4618L26.4154 26.4785ZM27.2543 26.6124C27.5398 26.6459 27.7897 26.5622 27.9325 26.4116L27.6826 26.1438C27.5755 26.2274 27.4506 26.2777 27.3078 26.2777C27.0579 26.2609 26.8973 26.0768 26.933 25.8258C26.9687 25.5747 27.1472 25.4408 27.4149 25.4575C27.5577 25.4743 27.6648 25.5412 27.754 25.6584L28.0396 25.4575C27.9147 25.2567 27.7005 25.1395 27.4149 25.106C26.933 25.0558 26.5404 25.3404 26.4868 25.7755C26.4333 26.2274 26.7724 26.5622 27.2543 26.6124ZM28.5929 26.4283L28.6286 26.1772L29.3068 26.2609L29.3603 25.9597L28.6821 25.8592L28.7357 25.6249L29.5031 25.7421L29.5567 25.4241L28.3609 25.2567L28.1288 26.6794L29.3425 26.8635L29.396 26.5455L28.5929 26.4283ZM29.5567 26.8802L30.7168 27.0811L30.7703 26.763L30.0564 26.6291L30.2706 25.5245L29.8422 25.4408L29.5567 26.8802ZM30.8953 27.1313L32.0376 27.3991L32.1089 27.0811L31.395 26.9137L31.6806 25.8258L31.2701 25.7253L30.8953 27.1313ZM32.6979 27.215L32.7693 26.9639L33.4297 27.1313L33.5011 26.83L32.8407 26.6626L32.9121 26.4283L33.6617 26.6124L33.751 26.2944L32.5908 26.0099L32.1982 27.4158L33.394 27.7003L33.4832 27.3991L32.6979 27.215ZM35.0896 26.6961L34.8397 27.4325L34.447 26.4952L34.1079 26.3948L33.626 27.7673L34.0365 27.8845L34.2864 27.1647L34.6791 28.0853L35.0182 28.1857L35.4822 26.8133L35.0896 26.6961ZM36.0177 28.5372C36.2854 28.6209 36.5353 28.6042 36.7494 28.487L36.571 28.169C36.446 28.2359 36.3211 28.2527 36.1783 28.2192C35.9284 28.1355 35.8392 27.9347 35.9284 27.7003C36.0177 27.466 36.2318 27.3656 36.4817 27.4325C36.6245 27.4828 36.6959 27.5832 36.7673 27.7003L37.1064 27.5664C37.0172 27.3489 36.8565 27.1815 36.571 27.0978C36.1069 26.9472 35.6607 27.1313 35.5001 27.5497C35.3394 27.9681 35.5715 28.3866 36.0177 28.5372ZM37.3563 28.6544L37.4634 28.42L38.088 28.6544L38.213 28.3866L37.5883 28.1355L37.6775 27.9179L38.3915 28.1857L38.5342 27.9012L37.4098 27.466L36.8208 28.805L37.9631 29.2569L38.088 28.9556L37.3563 28.6544Z" fill="#FEFEFE"/>
</svg>
