<?xml version="1.0" encoding="utf-8"?>
<!-- Generator: Adobe Illustrator 23.0.5, SVG Export Plug-In . SVG Version: 6.00 Build 0)  -->
<svg version="1.1" id="Layer_1" xmlns="http://www.w3.org/2000/svg" xmlns:xlink="http://www.w3.org/1999/xlink" x="0px" y="0px"
	 viewBox="0 0 243.4 215.3" style="enable-background:new 0 0 243.4 215.3;" xml:space="preserve">
<style type="text/css">
	.st0{fill-rule:evenodd;clip-rule:evenodd;fill:#000066;}
	.st1{clip-path:url(#SVGID_2_);}
	.st2{fill-rule:evenodd;clip-rule:evenodd;fill:#FEFEFE;}
	.st3{fill:none;}
	.st4{fill-rule:evenodd;clip-rule:evenodd;fill:#ED3237;}
	.st5{fill:#FEFEFE;}
	.st6{fill-rule:evenodd;clip-rule:evenodd;fill:#3E4095;}
	.st7{fill-rule:evenodd;clip-rule:evenodd;fill:#0000FF;}
	.st8{fill-rule:evenodd;clip-rule:evenodd;fill:#FDFDFD;}
</style>
<g id="Layer_x0020_1">
	<g id="_699752400">
		<path class="st0" d="M42.1,98.7l2.1,12.2l34.4-29.3c2.1-1.9,2.6-2.6,4.7-4.3l38.3-33.2l48,41.6c2.5,2.4,6.7,5.7,9.8,8.2l14.4,12.7
			c2.2,2.1,2.2,2.3,4.3,4c4.5-5.8,2.7-90.1,2.5-104.5V0H42.1V98.7z"/>
		<path class="st0" d="M55.9,139.6l0.1,0.5c10.3,13.5,15.5,20.1,28.6,30.8c5,4.1,30.8,22.4,37,22.3c6.9-0.1,37-21.5,44.5-29
			c5.7-5.7,18.4-18,20.5-24.9l-64-56.3c-3.8,0.9-6.1,4.5-8.9,6.7L93,107.5c-1.5,1.3-2.3,2.4-3.8,3.6l-16.8,14.4
			C69.5,128.3,58.3,138.5,55.9,139.6z"/>
		<g>
			<defs>
				<path id="SVGID_1_" d="M55.9,139.6l0.1,0.5c10.3,13.5,15.5,20.1,28.6,30.8c5,4.1,30.8,22.4,37,22.3c6.9-0.1,37-21.5,44.5-29
					c5.7-5.7,18.4-18,20.5-24.9l-64-56.3c-3.8,0.9-6.1,4.5-8.9,6.7L93,107.5c-1.5,1.3-2.3,2.4-3.8,3.6l-16.8,14.4
					C69.5,128.3,58.3,138.5,55.9,139.6z"/>
			</defs>
			<clipPath id="SVGID_2_">
				<use xlink:href="#SVGID_1_"  style="overflow:visible;"/>
			</clipPath>
			<g class="st1">
				<g>
					<path class="st2" d="M57.3,143.4c6.8,3.4,12.3,13.7,16.8,20.2c3.2,4.6,2.3,3.4,8.9,4.2c16.4,2.2,36.3,12,37.9,12
						c1.4,0,14.6-6,17.9-7.2c32.4-11.6,18.6,4.1,33.7-16.4c1.9-2.5,3.9-5.4,5.6-7.4c2.9-3.4,3.8-2.4,6.4-7.4
						c-26.7,4.8-28.2,5.8-50.3,15.3c-6.7,2.9-8.3,5-13.1,8.7c-3.4-2.6-7.1-6-12.2-8.7c-8.3-4.5-36.6-13.9-46.6-14.6
						C56.7,141.9,59.6,141.6,57.3,143.4z"/>
				</g>
			</g>
		</g>
		<path class="st3" d="M55.9,139.6l0.1,0.5c10.3,13.5,15.5,20.1,28.6,30.8c5,4.1,30.8,22.4,37,22.3c6.9-0.1,37-21.5,44.5-29
			c5.7-5.7,18.4-18,20.5-24.9l-64-56.3c-3.8,0.9-6.1,4.5-8.9,6.7L93,107.5c-1.5,1.3-2.3,2.4-3.8,3.6l-16.8,14.4
			C69.5,128.3,58.3,138.5,55.9,139.6z"/>
		<path class="st0" d="M46.7,119.6c0.7,2.9,1.2,3.6,2.3,6.4c0.5,1.1,0.5,1.7,1.2,3c1.5,2.9,0,1.6,2.3,2.5
			c7.5-5.2,18.4-16.4,25.8-22.3c3.1-2.5,5.8-5,8.9-7.5l8.3-7.3c5.1-4.8,22-19.9,26.2-22.5l60,51.9c2.3,2.3,6.4,6.1,8.6,7.6
			c3.4-1.8,6.2-9.5,5.1-12.4l-64.7-56.6c-2.5-2.3-6.7-6.4-10-7.6l-51,44.9c-1.7,1.3-2.7,2.5-4.3,4L46.7,119.6z"/>
		<path class="st4" d="M44.2,111l2.5,8.7l18.7-15.9c1.6-1.4,2.5-2.7,4.3-4l51-44.9c3.4,1.2,7.6,5.3,10,7.6l64.7,56.6
			c2.5-1.2,1,1.2,2.3-2.7c0.5-1.9,0.6-3.7,0.5-5.6c-2.1-1.7-2.1-1.9-4.3-4L179.5,94c-3.1-2.5-7.3-5.8-9.8-8.2l-48-41.6L83.4,77.4
			c-2.1,1.6-2.7,2.4-4.7,4.3L44.2,111z"/>
		<path class="st4" d="M52.5,131.5c0.1,3.7,1.9,5.8,3.4,8.1c2.3-1.1,13.5-11.3,16.5-14.1l16.8-14.4c1.4-1.2,2.3-2.3,3.8-3.6
			l20.7-17.9c2.7-2.1,5-5.8,8.9-6.7l64,56.3c2.1-1.9,3.8-4.5,3.8-7.8c-2.2-1.5-6.3-5.4-8.6-7.6l-60-51.9
			c-4.3,2.5-21.2,17.7-26.2,22.5l-8.3,7.3c-3.1,2.5-5.8,4.9-8.9,7.5C70.9,115.1,60,126.4,52.5,131.5z"/>
		<path class="st5" d="M53.7,29.2h5.8c4,0,6.7-2.3,6.7-6S63.5,17,59.5,17h-5.8V29.2z M57.2,26.4v-6.7h2.2c2.1,0,3.4,1.2,3.4,3.4
			c0,2.1-1.4,3.3-3.4,3.3H57.2z"/>
		<polygon class="st5" points="71.5,26.5 71.5,24.3 76.8,24.3 76.8,21.7 71.5,21.7 71.5,19.7 77.6,19.7 77.6,17 68.1,17 68.1,29.2 
			77.8,29.2 77.8,26.5 		"/>
		<polygon class="st5" points="79.7,29.2 88.9,29.2 88.9,26.4 83.1,26.4 83.1,17 79.7,17 		"/>
		<polygon class="st5" points="90.3,29.2 93.7,29.2 93.7,17 90.3,17 		"/>
		<path class="st5" d="M104.2,26.1c-0.5,0.3-1.2,0.4-1.9,0.4c-2,0-3.4-1.4-3.4-3.4c0-2.1,1.4-3.5,3.4-3.5c1.2,0,2.1,0.5,3,1.4l2.2-2
			c-1.2-1.4-3.1-2.2-5.4-2.2c-3.9,0-6.7,2.6-6.7,6.3c0,3.6,2.8,6.3,6.7,6.3c1.8,0,3.7-0.5,5.2-1.5v-5h-3.1V26.1z"/>
		<polygon class="st5" points="117.5,17 117.5,21.6 112.9,21.6 112.9,17 109.4,17 109.4,29.2 112.9,29.2 112.9,24.4 117.5,24.4 
			117.5,29.2 121,29.2 121,17 		"/>
		<polygon class="st5" points="126,29.2 129.4,29.2 129.4,19.7 133.1,19.7 133.1,17 122.3,17 122.3,19.7 126,19.7 		"/>
		<path class="st5" d="M138.6,29.4c3.6,0,5.4-1.8,5.4-3.8c0-4.5-6.9-3.1-6.9-4.9c0-0.6,0.5-1.1,2-1.1c1,0,2.2,0.3,3.4,0.9l1-2.5
			c-1.2-0.7-2.8-1-4.4-1c-3.6,0-5.4,1.8-5.4,3.9c0,4.5,6.9,3.1,6.9,5c0,0.6-0.5,1-2,1c-1.4,0-2.9-0.5-4-1.2l-1.1,2.5
			C134.7,28.9,136.6,29.4,138.6,29.4z"/>
		<path class="st5" d="M151.7,29.4c3.9,0,6.7-2.6,6.7-6.3s-2.8-6.3-6.7-6.3c-3.8,0-6.7,2.7-6.7,6.3S147.8,29.4,151.7,29.4z
			 M151.7,26.5c-1.9,0-3.2-1.4-3.2-3.4c0-2.1,1.4-3.5,3.2-3.5s3.3,1.4,3.3,3.5C155,25.2,153.5,26.5,151.7,26.5z"/>
		<polygon class="st5" points="174.4,29.2 174.3,17 171.5,17 167.4,24 163.1,17 160.2,17 160.2,29.2 163.4,29.2 163.4,22.9 
			166.5,28 168,28 171.1,22.7 171.2,29.2 		"/>
		<polygon class="st5" points="180.1,26.5 180.1,24.3 185.6,24.3 185.6,21.7 180.1,21.7 180.1,19.7 186.3,19.7 186.3,17 176.8,17 
			176.8,29.2 186.5,29.2 186.5,26.5 		"/>
		<polygon class="st5" points="55.2,38.2 55.2,37.2 57.6,37.2 57.6,36.1 55.2,36.1 55.2,35.2 57.9,35.2 57.9,34 53.7,34 53.7,39.4 
			58.1,39.4 58.1,38.2 		"/>
		<path class="st5" d="M60.4,39.4h2.5c1.8,0,3-1,3-2.7s-1.2-2.7-3-2.7h-2.5V39.4z M61.9,38.2v-3h0.9c1,0,1.6,0.5,1.6,1.5
			c0,0.9-0.6,1.4-1.6,1.4H61.9z"/>
		<path class="st5" d="M70.6,39.5c1.6,0,2.5-0.9,2.5-2.5v-3h-1.4v2.9c0,1-0.4,1.3-1,1.3c-0.6,0-1-0.3-1-1.3V34h-1.5v3
			C68.1,38.6,69,39.5,70.6,39.5z"/>
		<path class="st5" d="M78.3,39.5c1,0,1.8-0.3,2.3-1l-1-0.9c-0.3,0.4-0.8,0.6-1.2,0.6c-0.9,0-1.5-0.6-1.5-1.5c0-1,0.6-1.5,1.5-1.5
			c0.5,0,0.9,0.2,1.2,0.6l1-0.9c-0.5-0.7-1.3-1-2.3-1c-1.7,0-3,1.2-3,2.8S76.6,39.5,78.3,39.5z"/>
		<path class="st5" d="M86.6,39.4h1.6L85.9,34h-1.5L82,39.4h1.5l0.4-1h2.3L86.6,39.4z M84.4,37.2l0.7-1.7l0.7,1.7H84.4z"/>
		<polygon class="st5" points="91,39.4 92.5,39.4 92.5,35.2 94.2,35.2 94.2,34 89.4,34 89.4,35.2 91,35.2 		"/>
		<polygon class="st5" points="96.2,39.4 97.7,39.4 97.7,34 96.2,34 		"/>
		<path class="st5" d="M103,39.5c1.7,0,3-1.2,3-2.7c0-1.6-1.2-2.8-3-2.8c-1.7,0-3,1.2-3,2.8C100,38.3,101.3,39.5,103,39.5z
			 M103,38.2c-0.8,0-1.4-0.6-1.4-1.5c0-1,0.6-1.5,1.4-1.5c0.8,0,1.4,0.5,1.4,1.5C104.4,37.6,103.7,38.2,103,38.2z"/>
		<polygon class="st5" points="111.8,34 111.8,36.8 109.4,34 108.2,34 108.2,39.4 109.7,39.4 109.7,36.5 112.1,39.4 113.3,39.4 
			113.3,34 		"/>
		<path class="st5" d="M119.8,39.4h1.6l-2.3-5.4h-1.5l-2.3,5.4h1.5l0.4-1h2.3L119.8,39.4z M117.6,37.2l0.7-1.7l0.7,1.7H117.6z"/>
		<polygon class="st5" points="123.3,39.4 127.4,39.4 127.4,38.2 124.8,38.2 124.8,34 123.3,34 		"/>
		<polygon class="st5" points="131.7,39.4 133.2,39.4 133.2,34 131.7,34 		"/>
		<polygon class="st5" points="139.3,34 139.3,36.8 137,34 135.8,34 135.8,39.4 137.2,39.4 137.2,36.5 139.6,39.4 140.8,39.4 
			140.8,34 		"/>
		<path class="st5" d="M145.2,39.5c1.6,0,2.4-0.8,2.4-1.7c0-2-3-1.4-3-2.2c0-0.2,0.2-0.5,0.8-0.5c0.5,0,1,0.1,1.5,0.4l0.5-1.1
			c-0.5-0.3-1.2-0.5-2-0.5c-1.6,0-2.3,0.8-2.3,1.8c0,2,3,1.4,3,2.2c0,0.3-0.2,0.4-0.8,0.4c-0.7,0-1.3-0.2-1.8-0.5l-0.5,1.1
			C143.5,39.3,144.4,39.5,145.2,39.5z"/>
		<polygon class="st5" points="150.9,39.4 152.4,39.4 152.4,35.2 154,35.2 154,34 149.2,34 149.2,35.2 150.9,35.2 		"/>
		<polygon class="st5" points="156,39.4 157.5,39.4 157.5,34 156,34 		"/>
		<polygon class="st5" points="161.2,39.4 162.8,39.4 162.8,35.2 164.4,35.2 164.4,34 159.6,34 159.6,35.2 161.2,35.2 		"/>
		<path class="st5" d="M168.8,39.5c1.6,0,2.5-0.9,2.5-2.5v-3h-1.5v2.9c0,1-0.3,1.3-1,1.3c-0.7,0-1-0.3-1-1.3V34h-1.5v3
			C166.3,38.6,167.2,39.5,168.8,39.5z"/>
		<polygon class="st5" points="174.9,39.4 176.4,39.4 176.4,35.2 178.1,35.2 178.1,34 173.3,34 173.3,35.2 174.9,35.2 		"/>
		<polygon class="st5" points="181.6,38.2 181.6,37.2 184,37.2 184,36.1 181.6,36.1 181.6,35.2 184.3,35.2 184.3,34 180.1,34 
			180.1,39.4 184.4,39.4 184.4,38.2 		"/>
		<path class="st2" d="M107.2,103.7l-0.8,6.5c-1.2-0.3-1-1.2-3.2-1.2c-3.6,0-5.5,3.7-5.9,7.2c-0.3,2.7,0.1,5.8,1.7,7.1
			c1.6,1.2,4.1,1,5.7-0.6l0.8-0.6v1.5l16.1-0.3l0.6-5.1l-7.5,0.1l0.3-3l6.6-0.2c0.4-1,0.5-3.4,0.5-4.6l-6.6,0.1l0.1-2
			c1.7-0.8,5.2-0.2,7.1-0.5c0.4-1.3,0.5-3.2,0.5-4.8L107.2,103.7z"/>
		<path class="st2" d="M122.6,109.4c1.3,2.1,4.5,3,5.4,7.5c0.8,5.2-2.4,7.3-3.2,9.6c4.3-0.7,8.9-5.8,10.6-8.7
			c2.3-3.8,4.3-9.8,4.3-15.3c-0.5,0.3,0-0.1-0.4,0.3c-0.1,0.1-0.2,0.4-0.3,0.5c-1.1,2.3-1.4,4.5-5.2,6
			C129.6,111.3,126.8,109.8,122.6,109.4z"/>
		<path class="st0" d="M112.1,104.4c-0.3,0.8-2.1,16.8-2.1,18.3l10.9-0.4l0.5-3.4l-7.4,0.1l0.2-3.5c0.1-0.8-0.1-0.5,0.3-0.9
			c0.9-0.6,4.9,0.1,6.4-0.4c0.3-0.2,0.3-0.7,0.3-1.3c0.1-0.5,0.1-1.1,0.1-1.7l-6.7,0.1l0.3-3.6c1.8-0.5,5.6,0.1,7.2-0.5l0.2-0.5
			c0,0,0-0.1,0-0.1l0.2-2.5C121,104,113,104.1,112.1,104.4z"/>
		<path class="st2" d="M128.3,98.9c-4.1,1.6-1.9,7.9,2.2,6.5C133.8,104.1,132.7,97.2,128.3,98.9z"/>
		<path class="st6" d="M103.9,113.2c-1.4,0.5-1.9,1.6-2.1,3.4c-0.1,1.6,0.2,3.8,2.1,3.2C106.4,119.2,106.7,112.2,103.9,113.2z"/>
		<path class="st7" d="M72.5,158.9l3.1,1.6l-0.1,4.6c1.3-0.5,2.3-1.5,3.3-1.7c0.7-0.2,2.8,0.4,4.1,0.5l-1.1-4.3
			c0.7-0.8,1.5-1.4,2.3-2c-0.3-0.4,0.3-0.1-0.7-0.5c-1-0.5-3-0.2-3.4-0.4c-1-1.1-1.1-2.3-2.1-3.2c-2.1,4.9-1.9,3.8-4.5,4.8
			L72.5,158.9z"/>
		<path class="st4" d="M92.5,132.1c-0.1,0.1-0.1,0.1-0.2,0.1l-0.8,0.3c0,0-1,0.1-1,0.1l-5.8,1c-1,0.4-4.5,1.1-5.6,1l-13.1,3.8
			c-0.8,0.5-3.8,1.5-4.7,1.5l-13.1,5.3c-0.5,0.5-4.4,2.3-5.2,2.3l-1.2,0.8c-1.8,1-6,2.7-7.1,3.8l1.2,2.4l2.1,3.6
			c-3.5,1.9-6.7,3.9-10.1,6c-2,1.2-8.3,6-9.5,6.3c-0.6,1-16.4,12.9-18.4,16.5c2.8,0,14.4-0.5,15.9,0.6l1.6-0.1l11.5,1.5
			c-0.1,1.6-0.4,3.2-0.5,4.8l-0.7,4.9l-0.3,16.2c1-0.5,4.1-3.4,5-4.3c1.4-1.4,3.3-3,5-4.4c1.9-1.5,8.9-7,11-7.8
			c0.6-1,4.3-2.8,5.6-3.6c1.8-1,4.4-3,6.2-3.2c0.6-0.8,1-0.8,2-1.1c1.9-2.3,13.2-4.5,11.5-9.3c-1.6-4.6-13.5-0.2-16,0.9
			c2.5-1,5.8-2.8,8.9-4.1c3.2-1.3,6.1-2.4,9.5-3.6c6.5-2.2,13.7-4,20.7-5.2l6.5-0.9l5.7-0.6c1.9-0.2,4.4-0.6,6.3-0.1
			c1.2-0.8,11.2-0.2,12.4-0.2l5.6,0.4c1.2,0.1,2.3,0.2,3.6,0.3c0.5,0.1,1.1,0.1,1.6,0.2l1.5,0.5c1.3-0.3,4.4,0.2,5.6,0.7
			c1.4,0.2,10.9,2.1,12.7,2.9c0.9,0.4,0.2,0.1,0.6,0.4c1.4-0.1,3.9,0.8,5,1.3l6.1,2.1c0.9,0.3,1,0.3,1.6,0.8
			c-2.7,0.5-2.3,0.7-3.8,2.1c0.5,2.9,1.2,3.4,3.4,4.7c1.4,0.8,3.8,1.6,4.7,2.6c2.7,0.8,7.6,3.6,10.2,5.1c1.5,0.8,3.1,1.7,4.6,2.7
			c1.5,0.9,3.5,1.7,4.3,3.1c1,0.2,1.4,0.6,2.5,1.4c0.9,0.7,1.5,1.2,2.3,1.7c1.6,1.2,3,2.1,4.5,3.4c0.8,0.6,8,6.5,8.4,7.6
			c1.4,0.6,1,0.9,2.3,1.7l-0.4-16.6l-0.1-3.2c-0.7-0.8-1-4.9-1-6.3l6.4-0.9l5-0.5c5.6-0.3,8.2-0.5,13.9-0.4c2.7,0,3.8,0.5,4.3-0.5
			l-0.9-0.5c-0.2-0.2-0.3-0.4-0.6-0.6l-4.2-4c-2.1-1.8-3.9-3.4-5.9-5.2l-12.2-9.5l-15.5-9.5l2.1-3.9c-1.2-1.2-4-2.3-5.7-3.2
			c-1.2-0.6-5.2-2.3-5.9-3.1l-11.7-4.7c-1.3-0.3-2.5-0.8-3.6-1.2c-0.7-0.3-1.2-0.4-1.9-0.6l-1.6-0.8c-0.7,0.1-10.4-2.7-11.5-3.1
			c-1.3-0.3-2.5-0.6-3.6-0.8c-1.2-0.3-2.2-0.3-3.2-1c-1.1,0.2-4.1-0.3-5.1-0.8c-3.9-0.3-8.2-1.2-12.3-1.6c-4-0.5-8.9-0.4-12.4-1
			l-5.7-0.1l-6.5,0.1c-3.8-0.1-7.9,0.4-11.7,0.7C101.4,131.2,93.8,132.5,92.5,132.1z"/>
		<path class="st8" d="M158.3,178.9h6.1l-0.1-4.4c-1.1-0.5-3.6-1.4-5-1.3c-1.2,0-0.7,0.1-1,0.2L158.3,178.9z"/>
		<path class="st8" d="M127.8,172.8h6c0.1-1.5,0.3-3.2-0.3-4.6l-5.6-0.4C127.6,169.4,127.6,171.2,127.8,172.8z"/>
		<path class="st8" d="M103.5,168.8c-0.3,1.4-0.3,2.6-0.2,4.1h6.1c0.1-1.6,0.2-3.2-0.2-4.7L103.5,168.8z"/>
		<path class="st5" d="M33.7,176.7l6-2.7l-0.8-1.8l-3.8,1.7l-2.7-6.1l-2.3,1L33.7,176.7z M42,170.8l-0.5-1.5l3.6-1.3l-0.7-1.7
			l-3.6,1.3l-0.5-1.4l4.1-1.4l-0.6-1.8l-6.4,2.3l3,8.1l6.5-2.4l-0.6-1.8L42,170.8z M54.3,168.4l2.4-0.8l-6.5-6.9l-2.2,0.8l-0.8,9.4
			l2.4-0.8l0.1-1.8l3.4-1.2L54.3,168.4z M49.7,166.4l0.1-3l2,2.3L49.7,166.4z M57.4,167.4l3.9-1.1c2.7-0.8,4.1-3,3.4-5.5
			c-0.8-2.5-3.1-3.6-5.8-2.8l-3.9,1.2L57.4,167.4z M59.2,164.9l-1.3-4.5l1.4-0.4c1.4-0.4,2.6,0.1,3,1.6c0.4,1.4-0.3,2.5-1.6,3
			L59.2,164.9z M69,162.3l-0.3-1.6l3.7-0.8l-0.4-1.8l-3.7,0.9l-0.3-1.4l4.3-1l-0.4-1.9l-6.6,1.5l1.9,8.4l6.7-1.5l-0.4-1.9L69,162.3z
			 M80.5,161.6l2.5-0.5l-2.4-2.3c0.9-0.8,1.3-1.8,1-3c-0.4-1.9-2.1-2.8-4.4-2.3l-3.8,0.9l1.9,8.4l2.3-0.5l-0.5-2.3l1.3-0.3
			L80.5,161.6z M79.3,156.3c0.2,0.8-0.2,1.3-1.2,1.5l-1.4,0.3l-0.5-2.5l1.3-0.3C78.5,155.2,79.1,155.5,79.3,156.3z M87.1,160.6
			c2.5-0.4,3.6-1.9,3.4-3.4c-0.5-3.2-5.2-1.4-5.4-2.7c-0.1-0.5,0.2-0.8,1.2-1c0.8-0.1,1.6,0,2.5,0.3l0.4-1.9
			c-0.9-0.4-2.1-0.5-3.2-0.3c-2.5,0.4-3.6,1.9-3.4,3.4c0.5,3.2,5.2,1.4,5.4,2.7c0.1,0.4-0.3,0.8-1.3,0.9c-1,0.2-2.1,0-3-0.3
			l-0.5,1.9C84.3,160.7,85.7,160.9,87.1,160.6z M96.6,150.3l0.4,3.2l-3.3,0.4l-0.4-3.2l-2.4,0.3l1.1,8.5l2.4-0.3L94,156l3.3-0.4
			l0.4,3.4l2.4-0.3l-1.1-8.5L96.6,150.3z M101.9,158.4l2.4-0.2l-0.7-8.6l-2.4,0.2L101.9,158.4z M109.4,149.2l-3.9,0.3l0.6,8.7
			l2.4-0.2l-0.1-2.3l1.5-0.1c2.3-0.1,3.7-1.5,3.6-3.4C113.3,150.2,111.7,149.1,109.4,149.2z M109.6,153.7l-1.4,0.1l-0.2-2.5l1.4-0.1
			c1-0.1,1.6,0.4,1.6,1.2C111,153.2,110.5,153.6,109.6,153.7z M126.8,155.9l-1-0.8c0.4-0.6,0.6-1.2,0.8-2l-1.9-0.5
			c-0.1,0.5-0.2,0.9-0.3,1.2l-1.3-1c1.1-0.7,1.6-1.3,1.6-2.2c-0.1-1.3-1.2-2.1-2.7-2.1c-1.7,0.1-2.9,1-2.8,2.3
			c0,0.5,0.3,1.1,0.8,1.7c-1.2,0.7-1.7,1.4-1.7,2.5c0.1,1.4,1.5,2.4,3.5,2.3c1.1,0,2.1-0.3,2.9-1l1,0.9L126.8,155.9z M121.9,150.1
			c0.4,0,0.7,0.2,0.7,0.5s-0.2,0.6-0.9,1c-0.4-0.4-0.5-0.6-0.5-0.9C121.2,150.4,121.5,150.1,121.9,150.1z M121.8,155.7
			c-0.8,0.1-1.3-0.3-1.4-0.8c0-0.5,0.2-0.8,0.8-1.2l1.9,1.6C122.7,155.6,122.3,155.7,121.8,155.7z M134,155.5l0.1-1.6l3.8,0.1
			l0.1-1.9l-3.8-0.1l0.1-1.4l4.3,0.1l0.1-1.9l-6.7-0.2l-0.3,8.6l6.9,0.2l0.1-1.9L134,155.5z M148,158.2l-2.8-4.7l3.3-3.9l-2.6-0.2
			l-1.9,2.3l-1.5-2.6l-2.7-0.2l2.7,4.5l-3.5,4.1l2.8,0.3l1.9-2.5l1.6,2.8L148,158.2z M152.7,159c1.6,0.2,3-0.3,3.8-1.2l-1.4-1.6
			c-0.6,0.5-1.3,0.8-2.1,0.8c-1.4-0.1-2.3-1.2-2.1-2.7c0.2-1.5,1.2-2.3,2.7-2.2c0.8,0.1,1.4,0.5,1.9,1.2l1.6-1.2
			c-0.7-1.2-1.9-1.9-3.5-2.1c-2.7-0.3-4.9,1.4-5.2,4C148.1,156.7,150,158.7,152.7,159z M160.2,157.9l0.2-1.5l3.8,0.5l0.3-1.8
			l-3.8-0.6l0.3-1.4l4.3,0.7l0.3-1.9l-6.7-1l-1.3,8.5l6.8,1.1l0.3-1.9L160.2,157.9z M165.6,160.6l6.5,1.2l0.3-1.9l-4-0.8l1.2-6.6
			l-2.4-0.5L165.6,160.6z M173.1,162.1l6.4,1.6l0.4-1.9l-4-1l1.6-6.5l-2.3-0.6L173.1,162.1z M183.2,162.6l0.4-1.5l3.7,1l0.4-1.8
			l-3.7-1l0.4-1.4l4.2,1.1l0.5-1.9l-6.5-1.7l-2.2,8.4l6.7,1.7l0.5-1.8L183.2,162.6z M196.6,159.5l-1.4,4.4l-2.2-5.6l-1.9-0.6
			l-2.7,8.2l2.3,0.7l1.4-4.3l2.2,5.5l1.9,0.6l2.6-8.2L196.6,159.5z M201.8,170.5c1.5,0.5,2.9,0.4,4.1-0.3l-1-1.9
			c-0.7,0.4-1.4,0.5-2.2,0.3c-1.4-0.5-1.9-1.7-1.4-3.1c0.5-1.4,1.7-2,3.1-1.6c0.8,0.3,1.2,0.9,1.6,1.6l1.9-0.8
			c-0.5-1.3-1.4-2.3-3-2.8c-2.6-0.9-5.1,0.2-6,2.7S199.3,169.6,201.8,170.5z M209.3,171.2l0.6-1.4l3.5,1.4l0.7-1.6l-3.5-1.5l0.5-1.3
			l4,1.6l0.8-1.7l-6.3-2.6l-3.3,8l6.4,2.7l0.7-1.8L209.3,171.2z"/>
	</g>
</g>
</svg>
